<mxfile host="app.diagrams.net" agent="Mozilla/5.0 (Windows NT 10.0; Win64; x64) AppleWebKit/537.36 (KHTML, like Gecko) Chrome/133.0.0.0 Safari/537.36" version="26.0.15">
  <diagram name="페이지-1" id="YXmjZiUk76xweafu9c1G">
    <mxGraphModel dx="1434" dy="780" grid="1" gridSize="10" guides="1" tooltips="1" connect="1" arrows="1" fold="1" page="1" pageScale="1" pageWidth="827" pageHeight="1169" math="0" shadow="0">
      <root>
        <mxCell id="0" />
        <mxCell id="1" parent="0" />
        <mxCell id="FjLyYZhxcnclpiNzqEgx-3" style="edgeStyle=orthogonalEdgeStyle;rounded=0;orthogonalLoop=1;jettySize=auto;html=1;exitX=0.5;exitY=1;exitDx=0;exitDy=0;entryX=0.5;entryY=0;entryDx=0;entryDy=0;" edge="1" parent="1" source="FjLyYZhxcnclpiNzqEgx-1" target="FjLyYZhxcnclpiNzqEgx-2">
          <mxGeometry relative="1" as="geometry" />
        </mxCell>
        <mxCell id="FjLyYZhxcnclpiNzqEgx-1" value="회원가입" style="rounded=1;whiteSpace=wrap;html=1;" vertex="1" parent="1">
          <mxGeometry x="360" y="40" width="120" height="60" as="geometry" />
        </mxCell>
        <mxCell id="FjLyYZhxcnclpiNzqEgx-4" style="edgeStyle=orthogonalEdgeStyle;rounded=0;orthogonalLoop=1;jettySize=auto;html=1;exitX=1;exitY=0.5;exitDx=0;exitDy=0;" edge="1" parent="1" source="FjLyYZhxcnclpiNzqEgx-2">
          <mxGeometry relative="1" as="geometry">
            <mxPoint x="560" y="180" as="targetPoint" />
          </mxGeometry>
        </mxCell>
        <mxCell id="FjLyYZhxcnclpiNzqEgx-5" style="edgeStyle=orthogonalEdgeStyle;rounded=0;orthogonalLoop=1;jettySize=auto;html=1;exitX=0;exitY=0.5;exitDx=0;exitDy=0;" edge="1" parent="1" source="FjLyYZhxcnclpiNzqEgx-2">
          <mxGeometry relative="1" as="geometry">
            <mxPoint x="280" y="180" as="targetPoint" />
          </mxGeometry>
        </mxCell>
        <mxCell id="FjLyYZhxcnclpiNzqEgx-2" value="회원 유/무" style="rhombus;whiteSpace=wrap;html=1;" vertex="1" parent="1">
          <mxGeometry x="380" y="140" width="80" height="80" as="geometry" />
        </mxCell>
        <mxCell id="FjLyYZhxcnclpiNzqEgx-6" value="YES(기존 회원)" style="text;html=1;align=center;verticalAlign=middle;whiteSpace=wrap;rounded=0;" vertex="1" parent="1">
          <mxGeometry x="450" y="150" width="100" height="30" as="geometry" />
        </mxCell>
        <mxCell id="FjLyYZhxcnclpiNzqEgx-7" value="NO(신규 회원)" style="text;html=1;align=center;verticalAlign=middle;whiteSpace=wrap;rounded=0;" vertex="1" parent="1">
          <mxGeometry x="290" y="150" width="90" height="30" as="geometry" />
        </mxCell>
        <mxCell id="FjLyYZhxcnclpiNzqEgx-10" style="edgeStyle=orthogonalEdgeStyle;rounded=0;orthogonalLoop=1;jettySize=auto;html=1;exitX=0.5;exitY=1;exitDx=0;exitDy=0;entryX=0.5;entryY=0;entryDx=0;entryDy=0;" edge="1" parent="1" source="FjLyYZhxcnclpiNzqEgx-8" target="FjLyYZhxcnclpiNzqEgx-9">
          <mxGeometry relative="1" as="geometry" />
        </mxCell>
        <mxCell id="FjLyYZhxcnclpiNzqEgx-8" value="회원가입 폼" style="rounded=0;whiteSpace=wrap;html=1;" vertex="1" parent="1">
          <mxGeometry x="160" y="150" width="120" height="60" as="geometry" />
        </mxCell>
        <mxCell id="FjLyYZhxcnclpiNzqEgx-20" style="edgeStyle=orthogonalEdgeStyle;rounded=0;orthogonalLoop=1;jettySize=auto;html=1;exitX=0.5;exitY=1;exitDx=0;exitDy=0;entryX=0.5;entryY=0;entryDx=0;entryDy=0;" edge="1" parent="1" source="FjLyYZhxcnclpiNzqEgx-9" target="FjLyYZhxcnclpiNzqEgx-19">
          <mxGeometry relative="1" as="geometry" />
        </mxCell>
        <mxCell id="FjLyYZhxcnclpiNzqEgx-33" style="edgeStyle=orthogonalEdgeStyle;rounded=0;orthogonalLoop=1;jettySize=auto;html=1;exitX=0;exitY=0.5;exitDx=0;exitDy=0;" edge="1" parent="1" source="FjLyYZhxcnclpiNzqEgx-9" target="FjLyYZhxcnclpiNzqEgx-9">
          <mxGeometry relative="1" as="geometry">
            <mxPoint x="170" y="240" as="targetPoint" />
            <Array as="points">
              <mxPoint x="160" y="280" />
              <mxPoint x="160" y="241" />
            </Array>
          </mxGeometry>
        </mxCell>
        <mxCell id="FjLyYZhxcnclpiNzqEgx-9" value="약관 동의" style="rhombus;whiteSpace=wrap;html=1;" vertex="1" parent="1">
          <mxGeometry x="180" y="240" width="80" height="80" as="geometry" />
        </mxCell>
        <mxCell id="FjLyYZhxcnclpiNzqEgx-45" style="edgeStyle=orthogonalEdgeStyle;rounded=0;orthogonalLoop=1;jettySize=auto;html=1;exitX=0.5;exitY=1;exitDx=0;exitDy=0;entryX=0.5;entryY=0;entryDx=0;entryDy=0;" edge="1" parent="1" source="FjLyYZhxcnclpiNzqEgx-19" target="FjLyYZhxcnclpiNzqEgx-44">
          <mxGeometry relative="1" as="geometry" />
        </mxCell>
        <mxCell id="FjLyYZhxcnclpiNzqEgx-19" value="회원 정보 입력" style="shape=parallelogram;perimeter=parallelogramPerimeter;whiteSpace=wrap;html=1;fixedSize=1;" vertex="1" parent="1">
          <mxGeometry x="160" y="360" width="120" height="60" as="geometry" />
        </mxCell>
        <mxCell id="FjLyYZhxcnclpiNzqEgx-21" value="YES" style="text;html=1;align=center;verticalAlign=middle;whiteSpace=wrap;rounded=0;" vertex="1" parent="1">
          <mxGeometry x="220" y="320" width="60" height="30" as="geometry" />
        </mxCell>
        <mxCell id="FjLyYZhxcnclpiNzqEgx-24" style="edgeStyle=orthogonalEdgeStyle;rounded=0;orthogonalLoop=1;jettySize=auto;html=1;exitX=0.5;exitY=1;exitDx=0;exitDy=0;entryX=0.5;entryY=0;entryDx=0;entryDy=0;" edge="1" parent="1" source="FjLyYZhxcnclpiNzqEgx-22" target="FjLyYZhxcnclpiNzqEgx-23">
          <mxGeometry relative="1" as="geometry" />
        </mxCell>
        <mxCell id="FjLyYZhxcnclpiNzqEgx-22" value="로그인 폼" style="rounded=0;whiteSpace=wrap;html=1;" vertex="1" parent="1">
          <mxGeometry x="560" y="150" width="120" height="60" as="geometry" />
        </mxCell>
        <mxCell id="FjLyYZhxcnclpiNzqEgx-26" style="edgeStyle=orthogonalEdgeStyle;rounded=0;orthogonalLoop=1;jettySize=auto;html=1;exitX=0.5;exitY=1;exitDx=0;exitDy=0;entryX=0.5;entryY=0;entryDx=0;entryDy=0;" edge="1" parent="1" source="FjLyYZhxcnclpiNzqEgx-23" target="FjLyYZhxcnclpiNzqEgx-25">
          <mxGeometry relative="1" as="geometry" />
        </mxCell>
        <mxCell id="FjLyYZhxcnclpiNzqEgx-23" value="ID/PW 입력" style="shape=parallelogram;perimeter=parallelogramPerimeter;whiteSpace=wrap;html=1;fixedSize=1;" vertex="1" parent="1">
          <mxGeometry x="560" y="260" width="120" height="60" as="geometry" />
        </mxCell>
        <mxCell id="FjLyYZhxcnclpiNzqEgx-27" style="edgeStyle=orthogonalEdgeStyle;rounded=0;orthogonalLoop=1;jettySize=auto;html=1;exitX=0.5;exitY=1;exitDx=0;exitDy=0;" edge="1" parent="1" source="FjLyYZhxcnclpiNzqEgx-25">
          <mxGeometry relative="1" as="geometry">
            <mxPoint x="620" y="480" as="targetPoint" />
          </mxGeometry>
        </mxCell>
        <mxCell id="FjLyYZhxcnclpiNzqEgx-30" style="edgeStyle=orthogonalEdgeStyle;rounded=0;orthogonalLoop=1;jettySize=auto;html=1;exitX=1;exitY=0.5;exitDx=0;exitDy=0;entryX=1;entryY=0.5;entryDx=0;entryDy=0;" edge="1" parent="1" source="FjLyYZhxcnclpiNzqEgx-25" target="FjLyYZhxcnclpiNzqEgx-22">
          <mxGeometry relative="1" as="geometry">
            <Array as="points">
              <mxPoint x="720" y="400" />
              <mxPoint x="720" y="180" />
            </Array>
          </mxGeometry>
        </mxCell>
        <mxCell id="FjLyYZhxcnclpiNzqEgx-25" value="ID/PW&lt;div&gt;확인&lt;/div&gt;" style="rhombus;whiteSpace=wrap;html=1;" vertex="1" parent="1">
          <mxGeometry x="580" y="360" width="80" height="80" as="geometry" />
        </mxCell>
        <mxCell id="FjLyYZhxcnclpiNzqEgx-43" style="edgeStyle=orthogonalEdgeStyle;rounded=0;orthogonalLoop=1;jettySize=auto;html=1;exitX=0.5;exitY=1;exitDx=0;exitDy=0;entryX=1;entryY=0.5;entryDx=0;entryDy=0;" edge="1" parent="1" source="FjLyYZhxcnclpiNzqEgx-28" target="FjLyYZhxcnclpiNzqEgx-41">
          <mxGeometry relative="1" as="geometry" />
        </mxCell>
        <mxCell id="FjLyYZhxcnclpiNzqEgx-28" value="로그인 완료" style="rounded=0;whiteSpace=wrap;html=1;" vertex="1" parent="1">
          <mxGeometry x="560" y="480" width="120" height="60" as="geometry" />
        </mxCell>
        <mxCell id="FjLyYZhxcnclpiNzqEgx-29" value="YES(존재하는 회원)" style="text;html=1;align=center;verticalAlign=middle;whiteSpace=wrap;rounded=0;" vertex="1" parent="1">
          <mxGeometry x="620" y="440" width="110" height="30" as="geometry" />
        </mxCell>
        <mxCell id="FjLyYZhxcnclpiNzqEgx-31" value="NO(잘못된 회원)" style="text;html=1;align=center;verticalAlign=middle;whiteSpace=wrap;rounded=0;" vertex="1" parent="1">
          <mxGeometry x="720" y="275" width="100" height="30" as="geometry" />
        </mxCell>
        <mxCell id="FjLyYZhxcnclpiNzqEgx-34" value="NO" style="text;html=1;align=center;verticalAlign=middle;whiteSpace=wrap;rounded=0;" vertex="1" parent="1">
          <mxGeometry x="100" y="245" width="60" height="30" as="geometry" />
        </mxCell>
        <mxCell id="FjLyYZhxcnclpiNzqEgx-47" style="edgeStyle=orthogonalEdgeStyle;rounded=0;orthogonalLoop=1;jettySize=auto;html=1;exitX=1;exitY=0.5;exitDx=0;exitDy=0;entryX=0;entryY=0.5;entryDx=0;entryDy=0;" edge="1" parent="1" source="FjLyYZhxcnclpiNzqEgx-35" target="FjLyYZhxcnclpiNzqEgx-41">
          <mxGeometry relative="1" as="geometry" />
        </mxCell>
        <mxCell id="FjLyYZhxcnclpiNzqEgx-35" value="회원가입 완료" style="rounded=0;whiteSpace=wrap;html=1;" vertex="1" parent="1">
          <mxGeometry x="160" y="555" width="120" height="60" as="geometry" />
        </mxCell>
        <mxCell id="FjLyYZhxcnclpiNzqEgx-39" style="edgeStyle=orthogonalEdgeStyle;rounded=0;orthogonalLoop=1;jettySize=auto;html=1;exitX=0;exitY=0.5;exitDx=0;exitDy=0;entryX=0;entryY=0.5;entryDx=0;entryDy=0;" edge="1" parent="1" source="FjLyYZhxcnclpiNzqEgx-44" target="FjLyYZhxcnclpiNzqEgx-19">
          <mxGeometry relative="1" as="geometry">
            <mxPoint x="140" y="330" as="targetPoint" />
            <Array as="points">
              <mxPoint x="140" y="490" />
              <mxPoint x="140" y="390" />
            </Array>
          </mxGeometry>
        </mxCell>
        <mxCell id="FjLyYZhxcnclpiNzqEgx-37" value="YES(올바른 정보)" style="text;html=1;align=center;verticalAlign=middle;whiteSpace=wrap;rounded=0;" vertex="1" parent="1">
          <mxGeometry x="220" y="525" width="110" height="30" as="geometry" />
        </mxCell>
        <mxCell id="FjLyYZhxcnclpiNzqEgx-38" value="회원 정보를 다시 입력하세요." style="shape=document;whiteSpace=wrap;html=1;boundedLbl=1;" vertex="1" parent="1">
          <mxGeometry x="15" y="370" width="120" height="80" as="geometry" />
        </mxCell>
        <mxCell id="FjLyYZhxcnclpiNzqEgx-40" value="NO(잘못된 정보)" style="text;html=1;align=center;verticalAlign=middle;whiteSpace=wrap;rounded=0;" vertex="1" parent="1">
          <mxGeometry x="20" y="460" width="110" height="30" as="geometry" />
        </mxCell>
        <mxCell id="FjLyYZhxcnclpiNzqEgx-41" value="메인화면" style="rounded=1;whiteSpace=wrap;html=1;" vertex="1" parent="1">
          <mxGeometry x="360" y="555" width="120" height="60" as="geometry" />
        </mxCell>
        <mxCell id="FjLyYZhxcnclpiNzqEgx-46" style="edgeStyle=orthogonalEdgeStyle;rounded=0;orthogonalLoop=1;jettySize=auto;html=1;exitX=0.5;exitY=1;exitDx=0;exitDy=0;entryX=0.5;entryY=0;entryDx=0;entryDy=0;" edge="1" parent="1" source="FjLyYZhxcnclpiNzqEgx-44" target="FjLyYZhxcnclpiNzqEgx-35">
          <mxGeometry relative="1" as="geometry" />
        </mxCell>
        <mxCell id="FjLyYZhxcnclpiNzqEgx-44" value="회원 정보&amp;nbsp;&lt;div&gt;확인&lt;/div&gt;" style="rhombus;whiteSpace=wrap;html=1;" vertex="1" parent="1">
          <mxGeometry x="180" y="450" width="80" height="80" as="geometry" />
        </mxCell>
      </root>
    </mxGraphModel>
  </diagram>
</mxfile>
